<?xml version="1.0" encoding="utf-8"?>
<!-- Generator: Adobe Illustrator 21.1.0, SVG Export Plug-In . SVG Version: 6.00 Build 0)  -->
<svg version="1.1" id="Layer_1" xmlns="http://www.w3.org/2000/svg" xmlns:xlink="http://www.w3.org/1999/xlink" x="0px"
     y="0px"
     viewBox="0 0 24 24" style="enable-background:new 0 0 24 24;" xml:space="preserve">
<style type="text/css">
	.st0{fill:#FFFFFF;}
</style>
  <path class="st0" d="M12.8,16.1h3.3V17h-3.3V16.1z M12.8,15.3h3.3v-0.8h-3.3V15.3z M20.2,3.8v18.1H3.8V3.8h2.5c1,0,1.8-0.9,2.5-1.7
	h6.6c0.7,0.8,1.5,1.7,2.5,1.7H20.2z M11.2,4.6c0,0.5,0.4,0.8,0.8,0.8c0.5,0,0.8-0.4,0.8-0.8S12.5,3.8,12,3.8
	C11.5,3.8,11.2,4.1,11.2,4.6z M18.6,5.4h-3.3l-1.7,1.7h-3.2L8.7,5.4H5.4v14.9h13.2V5.4z M12.8,12.8h3.3V12h-3.3V12.8z M12.8,11.2
	h3.3v-0.8h-3.3V11.2z M7.5,11.2l0.3-0.3c0.4,0.2,0.6,0.3,1,0.6c0.8-0.9,1.3-1.3,2.3-1.9l0.1,0.2c-0.8,0.7-1.4,1.5-2.2,3
	C8.4,12.2,8.1,11.8,7.5,11.2z M7.5,15.4l0.3-0.3c0.4,0.2,0.6,0.3,1,0.6c0.8-0.9,1.3-1.3,2.3-1.9l0.1,0.2c-0.8,0.7-1.4,1.5-2.2,3
	C8.5,16.3,8.2,16,7.5,15.4z"/>
</svg>

