<svg xmlns="http://www.w3.org/2000/svg" viewBox="0 0 24 24">
  <g fill="none" fill-rule="evenodd">
    <path fill="#FFF" fill-opacity=".01" d="M0 0h24v24H0z"/>
    <path fill="none" stroke="#FFF"
          d="M8.192 4.903H6.935c-.89 0-1.612.722-1.612 1.613v13.549c0 .89.722 1.612 1.612 1.612h10.968c.891 0 1.613-.722 1.613-1.612V6.516c0-.89-.722-1.613-1.613-1.613h-1.256v.616a.968.968 0 0 1-.968.968H9.16a.968.968 0 0 1-.967-.968v-.616z"/>
    <path stroke="#FFF"
          d="M10.555 3.505C10.75 2.646 11.595 2 12.61 2c1.014 0 1.86.646 2.055 1.505h.658c.712 0 1.29.578 1.29 1.29v.43a1.29 1.29 0 0 1-1.29 1.291H9.516a1.29 1.29 0 0 1-1.29-1.29v-.43c0-.713.578-1.29 1.29-1.29h1.04zm2.055.753a.568.568 0 0 0 .572-.564.568.568 0 0 0-.572-.565.568.568 0 0 0-.572.565c0 .311.256.564.572.564z"/>
    <path fill="#FFF"
          d="M16.95 9.742H7.89a.318.318 0 0 0-.308.323c0 .175.14.322.308.322H16.95a.318.318 0 0 0 .308-.322.318.318 0 0 0-.308-.323M16.95 13.613H7.89a.318.318 0 0 0-.308.322c0 .176.14.323.308.323H16.95a.318.318 0 0 0 .308-.323.318.318 0 0 0-.308-.322M9.85 17.484H7.891a.32.32 0 0 0-.31.322.32.32 0 0 0 .31.323h1.96a.32.32 0 0 0 .31-.323.32.32 0 0 0-.31-.322M16.757 15.653l-2.16 2.622-.766.93-1.233-1.497c-.268-.325-.682.179-.415.504l1.441 1.75a.26.26 0 0 0 .415 0l2.159-2.622.974-1.183c.267-.325-.148-.829-.415-.504"/>
  </g>
</svg>
