<?xml version="1.0" encoding="utf-8"?>
<!-- Generator: Adobe Illustrator 21.1.0, SVG Export Plug-In . SVG Version: 6.00 Build 0)  -->
<svg version="1.1" id="Layer_1" xmlns="http://www.w3.org/2000/svg" xmlns:xlink="http://www.w3.org/1999/xlink" x="0px"
     y="0px"
     viewBox="0 0 24 24" style="enable-background:new 0 0 24 24;" xml:space="preserve">
<style type="text/css">
	.st0{fill:#FFFFFF;}
</style>
  <g>
	<path class="st0" d="M9.4,10.7V8c0-1.5,1.2-2.7,2.6-2.7s2.6,1.2,2.6,2.7v0.7h1.3V8c0-2.2-1.7-4-3.9-4S8.1,5.8,8.1,8v2.7H6.2V20
		h11.6v-9.3H9.4z M16.5,18.7h-9V12h9V18.7z"/>
    <path class="st0" d="M10.7,14.6c0-0.7,0.6-1.3,1.3-1.3s1.3,0.6,1.3,1.3c0,0.5-0.3,0.9-0.7,1.1v1.5h-1.3v-1.5
		C10.9,15.6,10.7,15.1,10.7,14.6z"/>
</g>
</svg>
