<?xml version="1.0" encoding="utf-8"?>
<!-- Generator: Adobe Illustrator 21.1.0, SVG Export Plug-In . SVG Version: 6.00 Build 0)  -->
<svg version="1.1" id="Layer_1" xmlns="http://www.w3.org/2000/svg" xmlns:xlink="http://www.w3.org/1999/xlink" x="0px"
     y="0px"
     viewBox="0 0 24 24" style="enable-background:new 0 0 24 24;" xml:space="preserve">
<style type="text/css">
	.st0{fill:#FFFFFF;}
</style>
  <g>
	<path class="st0" d="M11.6,5.3c2.7,0,1.7,4,1.7,4s3.9-1.1,3.9,1.6v7.7H6.8V5.3H11.6z M12.1,4H5.5v16h13v-9.6
		C18.5,8.8,14.2,4,12.1,4z M15.3,12.7h-1.7v2.5h0.6v-1h1v-0.5h-1v-0.5h1.1V12.7z M12.1,12.7h-1v2.5h1c0.4,0,0.6-0.1,0.8-0.4
		c0.4-0.4,0.4-1.4,0-1.8C12.7,12.8,12.4,12.7,12.1,12.7z M11.6,13.2h0.3c0.3,0,0.5,0.1,0.6,0.4c0,0.2,0.1,0.5,0,0.6
		c-0.1,0.2-0.2,0.4-0.5,0.4h-0.4L11.6,13.2L11.6,13.2z M9.8,12.7H8.7v2.5h0.6v-0.9h0.5c0.4,0,0.7-0.2,0.8-0.5c0.1-0.2,0.1-0.4,0-0.6
		C10.5,12.9,10.2,12.7,9.8,12.7z M9.3,13.2h0.4c0.2,0,0.3,0,0.4,0.2c0,0.1,0,0.2,0,0.3c-0.1,0.1-0.2,0.2-0.4,0.2H9.3V13.2z"/>
</g>
</svg>
