<svg xmlns="http://www.w3.org/2000/svg" viewBox="0 0 24 24">
  <g fill="none" fill-rule="evenodd">
    <path fill="#FFF" fill-opacity=".01" d="M0 0h24v24H0z"/>
    <path fill="#FFF"
          d="M3.825 14.963c.054.014.118.023.175.037a5.187 5.187 0 0 1-.61-1c-.246.253-.42.473-.385.562.05.128.358.278.82.4"/>
    <path stroke="#FFF" d="M1.864 11s-2.265 4.197.54 5.584c2.803 1.386 7.978-.812 10.596-4.833"/>
    <path fill="#FFF"
          d="M14.284 17.31a6.904 6.904 0 0 1-3.105 1.772c.504-.83.91-1.706 1.206-2.618.743.113 1.474.295 2.196.518-.097.111-.191.223-.297.327zm1.656-4.53h.357a6.818 6.818 0 0 1-1.26 3.632c-.088-.029-.178-.049-.266-.076l-.347.503-.325-.695a15.723 15.723 0 0 0-1.428-.314c-.336.254-.684.491-1.044.714a11.78 11.78 0 0 1-1.38 2.718 7.6 7.6 0 0 1-.53.045v-1.769a12.85 12.85 0 0 1-.683.274v1.495l-.197-.009a8.696 8.696 0 0 1-1.128-1.067 14.4 14.4 0 0 1-.75.174c.192.233.392.461.608.675a6.889 6.889 0 0 1-1.388-.545c-.398.053-.793.082-1.179.09A7.655 7.655 0 0 0 9.376 20a7.631 7.631 0 0 0 5.39-2.212A7.481 7.481 0 0 0 17 12.441c0-.148-.014-.295-.021-.441l-1.039.78zM6.329 8.084c.857.206 1.736.314 2.625.314.091 0 .186-.005.279-.007v2.853H5.658c.03-1.103.26-2.169.67-3.16m-1.72-1.3c.03-.03.054-.062.083-.09a6.853 6.853 0 0 1 2.836-1.711A9.527 9.527 0 0 0 5.939 7.28a10.57 10.57 0 0 1-1.33-.496M8.782 4.72c.15-.017.3-.027.45-.033v3.02a10.552 10.552 0 0 1-2.616-.251A8.863 8.863 0 0 1 8.782 4.72m-2.43 10.187a8.866 8.866 0 0 1-.686-2.983h3.567v2.057c.236-.112.469-.235.699-.365l.03-1.692h1.304l-1.75-.749.396-.243V8.35c.662-.057 1.317-.17 1.956-.342.2.603.346 1.221.448 1.848L13 9.845a12.519 12.519 0 0 0-.48-2.031c.05-.017.096-.04.145-.057-.455-.111-.912-.22-1.37-.314-.454.103-.916.183-1.383.225V7.16l-.266-.054.266-.3V4.688c.083.004.167.004.25.011.249.338.473.692.683 1.053l.456-.514.005-.007c-.078-.128-.144-.262-.227-.387.16.035.317.09.476.136a1.207 1.207 0 0 1 .73-.243 1.779 1.779 0 0 1 .345.035l.351.043a7.615 7.615 0 0 0-4.46-.744c-1.603.233-3.11.938-4.311 2.14-.083.085-.45.498-.45.498-1.107 1.299-1.522 2.799-1.675 3.857L2 11.244h.718c.088-1.357.547-2.804 1.426-3.927.496.235 1.005.43 1.525.587a9.538 9.538 0 0 0-.69 3.34H2l.184.68h2.802A9.534 9.534 0 0 0 5.662 15c.225-.02.456-.051.69-.092"/>
    <path fill="#FFF"
          d="M14.136 11.643l-2.02-.855.032-.02a2.07 2.07 0 0 1 .812-.263l1.998-.029 2.386-2.773-.099-.031s-1.201-.37-1.369-.42a43.809 43.809 0 0 0-3.837-.928L12 6.316l.508-.546.002.024.117-.15.128-.138-.004.001a.308.308 0 0 1 .16-.081l.142-.003c.027.002 5.886.683 5.886.683l.223-.15c.326-.261.658-.519.998-.763.45-.323.894-.62 1.358-.908.11-.054.261-.117.421-.172.106-.036.197-.063.29-.081.095-.019.205-.032.267-.032h.088c.112 0 .23.05.303.128a.38.38 0 0 1 .092.161.407.407 0 0 1 .02.154 2.05 2.05 0 0 1-.101.55 1.993 1.993 0 0 1-.24.479c-.291.344-.61.685-.946 1.005-.255.244-.53.475-.81.7l-.207.17.009.318c.049.37.102.743.16 1.125l.073.452c.075.468.107.678.145.942.039.284.069.51.131 1.023l.102.809c.047.346.091.631.14.904.036.188.028.223 0 .294a.413.413 0 0 1-.133.163c-.031.026-.053.042-.093.07-.243.17-.475.34-.706.517l-.046.036-.011-.046a41.507 41.507 0 0 0-1.027-3.5c-.062-.182-.444-1.249-.444-1.249l-.032-.09-3.038 2.192-.061 1.958a1.764 1.764 0 0 1-.277.613l-.036.05-.919-1.899"/>
  </g>
</svg>
