<?xml version="1.0" encoding="UTF-8"?>
<svg width="23px" height="20px" viewBox="0 0 23 20" version="1.1" xmlns="http://www.w3.org/2000/svg"
     xmlns:xlink="http://www.w3.org/1999/xlink">
<g id="Page-1" stroke="none" stroke-width="1" fill="none" fill-rule="evenodd">
  <g id="Artboard-Copy-4" fill-rule="nonzero" stroke="#FFFFFF">
    <g id="dashboard" transform="translate(1.000000, 1.000000)">
      <path
        d="M0,10.7181818 C0,13.5818182 1.14074074,16.1181818 2.93333333,18 L18.4148148,18 C20.2074074,16.1181818 21.3481481,13.5 21.3481481,10.7181818 C21.3481481,4.74545455 16.5407407,0 10.6740741,0 C4.80740741,0 0,4.74545455 0,10.7181818 Z M10.5925926,15.2181818 C9.6962963,15.2181818 8.96296296,14.4818182 8.96296296,13.5818182 C8.96296296,12.9272727 9.37037037,12.2727273 9.94074074,12.0272727 C10.0222222,10.4727273 10.2666667,8.01818182 10.5925926,8.01818182 C10.9185185,8.01818182 11.162963,10.4727273 11.2444444,12.0272727 C11.8148148,12.2727273 12.2222222,12.8454545 12.2222222,13.5818182 C12.3037037,14.4818182 11.5703704,15.2181818 10.5925926,15.2181818 Z M16.5407407,11.4545455 C16.2962963,11.4545455 16.1333333,11.2909091 16.1333333,11.0454545 C16.1333333,10.8 16.2962963,10.6363636 16.5407407,10.6363636 L18.0888889,10.5545455 C18.0074074,8.75454545 17.2740741,7.03636364 16.0518519,5.80909091 L14.9925926,6.87272727 C14.8296296,7.03636364 14.5851852,7.03636364 14.4222222,6.87272727 C14.2592593,6.70909091 14.2592593,6.46363636 14.4222222,6.3 L15.4814815,5.23636364 C14.2592593,4.17272727 12.7925926,3.51818182 11.0814815,3.43636364 L11.0814815,4.90909091 C11.0814815,5.15454545 10.9185185,5.31818182 10.6740741,5.31818182 C10.4296296,5.31818182 10.2666667,5.15454545 10.2666667,4.90909091 L10.2666667,3.43636364 C8.55555556,3.51818182 7.08888889,4.17272727 5.86666667,5.23636364 L6.92592593,6.3 C7.08888889,6.46363636 7.08888889,6.70909091 6.92592593,6.87272727 C6.76296296,7.03636364 6.51851852,7.03636364 6.35555556,6.87272727 L5.2962963,5.80909091 C4.15555556,7.03636364 3.34074074,8.67272727 3.25925926,10.5545455 L4.80740741,10.5545455 C5.05185185,10.5545455 5.21481481,10.7181818 5.21481481,10.9636364 C5.21481481,11.2090909 5.05185185,11.3727273 4.80740741,11.3727273 L2.44444444,11.3727273 L2.44444444,10.9636364 C2.44444444,6.38181818 6.11111111,2.61818182 10.6740741,2.61818182 C15.237037,2.61818182 18.9037037,6.38181818 18.9037037,10.9636364 L18.9037037,11.3727273 L16.5407407,11.4545455 Z"
        id="Shape"></path>
    </g>
  </g>
</g>
</svg>
